<?xml version="1.0" standalone="no"?>
<!DOCTYPE svg PUBLIC "-//W3C//DTD SVG 20010904//EN"
 "http://www.w3.org/TR/2001/REC-SVG-20010904/DTD/svg10.dtd">
<svg version="1.0" xmlns="http://www.w3.org/2000/svg"
 width="560.000000pt" height="560.000000pt" viewBox="0 0 560.000000 560.000000"
 preserveAspectRatio="xMidYMid meet">
<metadata>
Created by potrace 1.11, written by Peter Selinger 2001-2013
</metadata>
<g transform="translate(0.000000,560.000000) scale(0.100000,-0.100000)"
fill="#000000" stroke="none">
<path d="M3083 5230 c-57 -27 -209 -64 -306 -75 -408 -45 -456 -55 -582 -115
-340 -163 -508 -400 -559 -790 -23 -176 -18 -534 9 -601 4 -12 -3 -20 -24 -29
-45 -18 -99 -73 -121 -122 -17 -38 -20 -66 -20 -239 0 -190 1 -196 26 -247 28
-57 87 -107 144 -122 35 -10 36 -10 48 -89 50 -317 271 -626 560 -782 l62 -34
0 -182 0 -183 -70 0 c-40 0 -70 4 -70 10 0 11 -68 5 -115 -10 -16 -6 -81 -21
-142 -34 -418 -91 -782 -376 -978 -767 -50 -98 -110 -285 -129 -398 -10 -59
-16 -155 -16 -258 l0 -163 2001 0 2002 0 -6 192 c-8 273 -47 430 -159 648
-198 387 -559 664 -979 750 -57 11 -111 25 -120 30 -27 14 -119 23 -119 11 0
-7 -27 -11 -70 -11 l-70 0 0 185 0 185 26 11 c15 5 64 34 108 63 250 163 428
426 485 720 18 92 20 95 78 116 44 16 110 85 129 135 23 62 17 425 -9 472 -25
46 -84 101 -125 115 l-35 13 9 110 c10 134 11 422 2 526 -14 155 -51 291 -110
402 -39 74 -149 188 -266 276 -46 35 -86 69 -89 77 -2 7 4 39 15 71 18 52 19
60 5 75 -13 15 -20 14 -96 -14 -44 -16 -84 -31 -89 -34 -4 -3 -1 13 7 35 12
34 12 41 -1 52 -12 9 -29 5 -88 -25 -41 -20 -76 -36 -79 -36 -3 0 4 17 16 38
22 42 18 73 -10 71 -10 0 -46 -14 -80 -29z"/>
</g>
</svg>
